<?xml version="1.0" encoding="UTF-8"?>
<svg id="Layer_2" data-name="Layer 2" xmlns="http://www.w3.org/2000/svg" viewBox="0 0 725 725">
  <defs>
    <style>
      .cls-1 {
        fill: #8ecee5;
      }

      .cls-2 {
        fill: #68808d;
      }

      .cls-3 {
        fill: #273f54;
      }

      .cls-4 {
        fill: #7c95a2;
      }

      .cls-5 {
        fill: #517b92;
      }

      .cls-6 {
        fill: #4e88a6;
      }

      .cls-7 {
        fill: #597482;
      }

      .cls-8 {
        fill: #d9eff4;
      }

      .cls-9 {
        fill: #1c3245;
      }

      .cls-10 {
        fill: #81c2db;
      }

      .cls-11 {
        fill: #b6c6cf;
      }

      .cls-12 {
        fill: #6f8998;
      }

      .cls-13 {
        fill: #abbac2;
      }

      .cls-14 {
        fill: #a2c8da;
      }

      .cls-15 {
        fill: #aad5e4;
      }

      .cls-16 {
        fill: #7eb7d1;
      }

      .cls-17 {
        fill: #2f4b62;
      }

      .cls-18 {
        fill: #c5d3da;
      }

      .cls-19 {
        fill: #9baeba;
      }

      .cls-20 {
        fill: #f6d47d;
      }

      .cls-21 {
        fill: #fefefe;
      }

      .cls-22 {
        fill: #e9785b;
      }

      .cls-23 {
        fill: #bae4f1;
      }

      .cls-24 {
        fill: #d6e1e5;
      }
    </style>
  </defs>
  <g id="Layer_1-2" data-name="Layer 1">
    <g id="Robbie">
      <g>
        <path class="cls-3" d="M576.21,158.78c-.41-.7-11.31-4.22-14.71-6.76-43.31-32.27-18.89-99.1,35.15-95.07,45.36,3.38,63.08,62.44,29.01,91.87-4.55,3.93-16.63,8.7-17.83,9.88-1.72,1.69-2.38,46.31-.68,48.02,1.57,1.57,21.62-2.21,22.01,15.51.49,21.62-24.53,13.49-29.85,16.59-.59.35-3.64,9.2-6.17,12.3-11.01,13.49-46.1,15.67-46.95,18.08-1.96,5.6,17.6,76.85,16.49,89.33,10.19,12.2,19.41,23.48,25.52,38.39,1.9,4.66,4.6,20.39,5.89,22.08.68.89,15.34,8.64,19.06,11.89,29.84,26.12,14.57,44.64,23.22,70.65,1.36,4.09,7.04,9.02,9.24,13.73,10.83,23.08,13.91,46.45,4.95,70.9-3.3,9-12.18,18.04-14.16,23.79-6.92,20.19,3.53,36.66-15.32,59.58-9.97,12.13-19.73,10.86-26.5,16.45-3.84,3.17-5.19,14.15-15.38,19.58-17.84,9.49-75.19,8.95-97.46,10.37-92.07,5.88-190.48,7.91-285.52-1.94-12.63-1.31-39.91-2.76-50.44-7.48-12.17-5.45-11.61-14.81-17.01-19.94-3.49-3.32-16.22-6.3-23.5-13.45-21.79-21.4-12.92-39.74-18.64-63.24-.75-3.06-7.33-9.5-9.29-13.68-12.52-26.8-14.01-51.78-1-78.93,1.82-3.81,9.87-13.17,10.29-14.68,7.45-26.74-5.32-46.07,22.72-71.15,4.39-3.92,19.62-11.2,20.25-12.21.41-.67,1.95-12.13,3.17-15.31,6.49-16.98,14.23-30.71,27.21-43.7.15-12.15,19.18-87.71,16.82-93.01-.64-1.44-21.55-5.23-28.95-12.15s-7.36-22.32-21.42-16.46c-.8.33-5.13,12.05-7.64,15.52-25.08,34.63-80.29,27.06-94.87-12.94-21.8-59.82,57.37-101.89,94.3-52.36,2.92,3.92,8.32,17.56,9.26,17.93,13.91,5.43,17.6-11.33,30.02-16.77,7.65-3.35,38.47-7.08,40.04-8.39s9.12-33.66,11.11-39.32C232.16,75.56,270.28,11.7,348.99,5.96c106.84-7.79,156.52,84.16,176.34,174.74l50.88,7.05c-1.01-4.62,1.35-26.63,0-28.96Z"/>
        <g>
          <path class="cls-2" d="M362.5,311.57c.59-.5,1.19-.97,1.86-1.32s1.27-.65,1.87-.64c65.13.71,155.19,23.16,196.73,76.83,6.18,7.98,14.43,19.11,14.25,28.99-23.98-.38-14.33-2.46-25.13-17.31-71.3-98.01-299.35-101.89-374.3-9.14-3.2,3.96-13.7,24.28-15,24.95-.76.39-15.43,1.67-16.98,1.5-.28-.71-.53-1.43-.64-2.17-.54-3.59,5.14-13.01,7.4-16.73,15.7-25.89,42.28-44.38,69.09-57.33l4.04.33,1.66-2.92c18.46-7.75,37.72-13.79,57.19-18.42l3.07,1.37c.59-.65,1.2-1.26,1.9-1.76s1.35-.94,2.07-1.1c20.81-4.45,45.19-7.08,66.47-7.1.74,0,1.48.3,2.25.64s1.51.82,2.22,1.33Z"/>
          <path class="cls-13" d="M368.49,301.58c58.27-9.7,189.15,39.69,209.46,101.61,2.03,6.2,5.87,12.34-.75,12.24-29.22-75.65-141.41-103.71-214.7-103.86l-1.98-1.04c-1.03-7.76.06-9.06,7.97-8.95Z"/>
          <path class="cls-13" d="M225.69,339.53c-32.83,14.86-67.78,40.64-79.89,75.9-6.56-.72-.42-12.4,1.83-17.65,12.67-29.62,47.82-53.99,76.07-67.24,2.94-1.01,4.77,7.76,2,8.99Z"/>
          <path class="cls-24" d="M368.49,301.58c-8.43,1.4-5.76,1.59-5.99,9.99-23.36-.05-52.04,3.09-74.9,7.99-3.87-.17-4.15-4.38-1.39-6.62,2.44-.57,5.19-2.67,6.39-4.36,25.06-5.03,50.16-8.43,75.9-6.99Z"/>
          <path class="cls-8" d="M292.6,308.57c3.39-1.11-2.45,4.86-2.63,5.09-.91,1.21-5.8-.6-2.37,5.9-17.92,3.84-45.25,12.43-61.91,19.97l-2-8.99c22.19-10.41,44.92-17.16,68.9-21.97Z"/>
          <g>
            <g>
              <path class="cls-22" d="M311.57,175.76c9.44-2.44,7,16.84,3,17.98-8.8,2.49-9.62-16.27-3-17.98Z"/>
              <path class="cls-5" d="M429.41,104.86c1.1.7,4.13,3.1,4.99,3.99,3.68,3.83,7.86,10.36,6.99,15.98-1.22,7.9-21.89,20.05-28.96,20.97-10.86,1.41-8.44-3.82-8.99-3.99.48-4.28,5.7-4.7,8.99-5.99l.42-2.29,10.1-3.96c5.92-2.83,9.79-5.61,7.45-12.72-3.59-5.55-16.77-7.98-18.73-10.23-3.35-3.84.74-7.33.75-7.75,5.36.54,12.52,3.14,16.98,5.99Z"/>
              <g>
                <path class="cls-2" d="M590.19,221.69c.49,7.45-1.51,18.96-7.47,23.99-4.46,3.76-36.36,13.3-39.41,10.9-1.07-.85-4.14-23.2-5.05-26.89l.61-2.11c16.6-2.55,33.21-5.11,49.83-7.67l1.49,1.79Z"/>
                <path class="cls-13" d="M586.19,209.71c2.05,3.94,3.7,7.47,3.99,11.98l-51.93,7.99c-2.15-8.74-4.15-17.13-5.99-25.96.17-.77.58-1.92,1.13-1.88,13.78.94,32.37,2.54,45.73,5.08,2.74.05,5.05.87,7.07,2.8Z"/>
                <path class="cls-24" d="M532.27,203.72c-1.43-6.87-7.92-11.07,2.46-10.95,14.08.15,44.67,3.9,51.46,16.95l-53.93-5.99Z"/>
                <path class="cls-13" d="M615.65,216.7c2.32.8,3.94,5.35,3.09,8.02-1.71,5.4-16.92,4.63-17.58,3.97-.42-.42-.59-11.99,0-11.99,2.99,0,12.66-.63,14.48,0Z"/>
                <g>
                  <path class="cls-13" d="M595.18,66.91c41.44,2.5,53.08,57.78,18.27,78.69-3.38,2.03-16.27,5.33-16.27,6.2v51.93c-.96-2.69-10.55-10.91-10.81-11.66-2.54-7.36,2.5-34.15-1.25-39.69-.71-1.04-17.24-7.03-22.35-11.6-14.97-13.4-17.09-34.42-8.53-51.89,1.25.28,2.24.76,2.8,1.81,8.87-11.24,20.25-19.12,34.8-20.71l3.34-3.07Z"/>
                  <path class="cls-24" d="M595.18,66.91c1.29,6.95-8.31,5.15-13.26,7.21s-9.86,4.82-14.03,7.94c-5.85,4.39-11.4,17.12-13.65,6.82,8.28-16.9,22.56-23.08,40.94-21.97Z"/>
                  <g>
                    <path class="cls-3" d="M585.96,78.16c48.45-7.07,48.01,69.36-.82,61.21-32.97-5.5-32.41-56.36.82-61.21Z"/>
                    <path class="cls-21" d="M585.94,88.13c28.79-5.41,36.46,32.78,12.93,40.9-30.7,10.58-38.76-36.04-12.93-40.9Z"/>
                  </g>
                </g>
              </g>
              <g>
                <path class="cls-2" d="M184.75,229.68c-.82,3.37-3.58,26.38-5.51,26.98-.76.24-13.59-4.03-15.13-4.84-11.97-6.3-16.02-16.15-15.31-29.13.35-.73.92-1.82,1.52-1.74,4.45.57,31.28,5.29,33.38,6.49l1.05,2.24Z"/>
                <path class="cls-13" d="M161.78,201.72c4.87-1.06,7.54-.06,7.99,3l-.34,2.15c-23.28,10.42-.1,9.56,9.27,5.16,2.73-1.62,5.08-2.06,7.05-1.32,2.23-1.28,3.23.38,3,4.99-1.06,4.78-2.87,9.38-3.99,13.98l-35.95-6.99c.63-11.5,3.31-15.99,12.98-20.97Z"/>
                <path class="cls-11" d="M161.78,201.72c3.9-2.01,30.54-9.43,31.95-7.98.78.81-4.33,19.03-4.99,21.96l-3-4.99c-.42-5.3-5.19-6.72-14.33-4.28l-1.65-1.71-7.99-3Z"/>
                <path class="cls-13" d="M69.9,176.76c.33-.03.67.02,1,0h-1Z"/>
                <path class="cls-8" d="M185.74,210.71c-1.71,2.71-20.57,7.64-23.99,6.56-11.43-3.6,2.13-11.26,8.01-12.55,4.47-.99,21.91-3.41,15.98,5.99Z"/>
                <g>
                  <path class="cls-13" d="M75.9,176.76c16.42.58,30.26,8.82,38.13,23.28,1.47,2.7,5.42,16.66,6.31,16.66h17.48c-1.08,1.74-.4,11.98-1,11.98h-16.48c-.93,0-5.31,12.98-6.69,15.28-24.71,40.89-85.44,22.21-83.68-24.27,1.63-.96,3.37-1.93,5.24-2.89,3.38-21.22,17.69-31.52,37.91-34.89,1.17-1.52,2.1-3.24,2.79-5.16Z"/>
                  <path class="cls-24" d="M69.9,176.76h1c1.62-.11,3.36-.06,4.99,0,3.98,9.66-10.57,8.13-17.97,11.49-6.7,3.04-13.57,9.44-16.86,16.1-3.76,7.6-1.3,18.01-11.11,15.35.81-21.41,18.57-40.79,39.94-42.94Z"/>
                  <g>
                    <path class="cls-3" d="M73.72,187.99c41.25-1.42,45.78,61.04,7.57,66.57-49.26,7.13-52.26-65.03-7.57-66.57Z"/>
                    <path class="cls-21" d="M71.67,197.99c33.12-3.77,35.22,47.09,3.66,47.69-29.55.56-32.23-44.43-3.66-47.69Z"/>
                  </g>
                </g>
              </g>
              <path class="cls-5" d="M310.57,98.86c.03.46,1.91,1.98,1.96,3.54.23,7.84-22.64,8.83-21.94,19.82s25.4,11.65,27.96,19.58c-1.23.48,3.5,4.82-7.99,3-22.02-3.5-42.44-25.36-15.98-40.94,3.16-1.86,12.06-3.92,15.98-4.99Z"/>
            </g>
            <g>
              <path class="cls-8" d="M216.7,159.78c.78-16.9,21.18-59.67,30.55-74.81,55.4-89.55,172.33-90.45,228.51-1.01,6.01,9.56,32.77,66.51,31.51,74.36-.43,2.67-9.48,1.35-11.96,1.45l-2.12-1.1c-.39-5.28-1.8-10.23-4.21-14.83l.34-2.04-2.43-2.35c-2.04-10-6.56-19.2-11.11-28.25l.56-3.35c-5.14-4.41-8.8-10.2-11-17.38-18.6-26.77-42.22-47.42-73.89-57.52-2.34,2.04-12.01.06-12.98-3-3.88,2.42-13.46,1.94-16.98-1-3.48,3-13.12,3.47-16.98,1l-2.63,2.4c-9.73,1.51-18.97,4.99-27.84,9.16l-3.48-.58-1.99,3.18c-19.29,8.87-34.11,23.58-45.52,41.26l-3.41,1.5c-.22,2.33-1.22,3.66-3,3.99l.7,2.7-7.05,13.46-2.64.82c-.4,6.49-2.74,12.73-7.02,18.71-.71,6.41-3.03,11.49-6.96,15.25l1.41,1.9c-2.68,4.72-4.49,9.64-5.42,14.75l-1.98,1.33c-.68,3.15-10.03,3.01-10.98,0Z"/>
              <path class="cls-5" d="M488.33,168.77c.75,1.32,1.46,2.66,2.05,4.05s1.12,2.74,1.42,4.16c6.32,29.81,12.51,59.74,18.46,89.63,3.79,19.06,7.16,39.01,9.05,57.49-1.7,1.64-4.37,1.13-8.01-1.54-7.53-2.3-14.81-6.74-21.97-9.99-7.17-22.96-11.69-46.87-12.98-70.9-3.13-.83-3.77-6.44-1-7.99-6.86-20.55-11.09-42.26-11.98-63.91,8.22-.39,16.77-.95,24.97-1Z"/>
              <path class="cls-12" d="M375.48,208.71c8.63,1.82,16.95,1.82,24.97,0,6.24-.14,12.8.47,18.97,0,3.2,2.5,6.64,4.81,10.31,6.93-.25,4.07,1.85,5.12,6.3,3.15,14.61-1.76,4.6,17.58-1.97,19.23-2.87.72-4.83.79-5.65-2.35l-2.25-.8c-6.76-16.74-33.95-13.83-33.65,5.9.02,14.69-.2,29.11-.67,43.25l-1.38.58c-.11,1.3.25,5.72,0,5.99-.32.33-8.62-1.09-9.01-1.47-1.85-1.78-.79-8.64-.97-11.52-3.79-7.77-2.78-20.69,0-28.96l-2.05-1.26c-.56-15.43-4.43-28.44-22.84-22.78-9.2,2.83-10.81,10.8-9.33,19.39l-1.73,1.66c-.62,4.67-.64,9.37-.04,14.1l-1.96,1.88c-.35,3.11-9.89,1.08-9.99-2-2.81-1.27-2.77-3.7,0-4.99,1.26-1.24,1.26-2.58,0-3.99l-2.06-1.18c1.68-15.15-3.1-23.71-14.36-25.67l-1.56-2.1c-3.19-.92-3.09-11.7,0-12.98,2.83-.87,5.72-1.72,8.7-1.76,14.46-.21,29.07-.27,43.53-.13,1.45.01,2.89.29,4.35.61s2.91.78,4.34,1.28Z"/>
              <path class="cls-4" d="M263.64,168.77c.27-2.79,10.95-2.74,12.95-2.06,3.13,1.07,3.59,2.26,4.19,5.46,1.18,11.78,4.2,22.59,9.06,32.46,7.38,2.37,15.26,3.06,23.63,2.07l1.1,2.02v12.98l-1.19,1.99c-7.1.37-14.04,4.86-15.63,12.06l-2.15.93c-2.6,11.69,3.42,49.68.04,58.24-.72,1.82-8.96,2.33-11.02,2.68l-2.19-1.24c-.2-16.34.12-32.72.95-49.13,2.38-19.41-13.29-29.71-29.4-18.99l-2.31-.54c-.3-1.48-.55-2.97-.65-4.46s-.17-2.94.04-4.36c2.5-16.69,5.64-34.97,12.59-50.1Z"/>
              <path class="cls-12" d="M499.31,168.77l2.21.77c12.03,54.96,24.39,111.42,36.43,166.38l-1.69,1.62c-8.14-5.21-17.08-9.36-24.97-14.98,1.2.37,5.78,2.23,5.99,1.99.34-.4-.96-8.83-1.14-10.33-6.16-48.9-19.59-96.93-27.81-145.45,3.63-.02,7.37-.19,10.98,0Z"/>
              <path class="cls-4" d="M235.67,168.77c0,4.19-.08,8.42-.92,12.54-3.72,18.18-7.61,36.45-11.66,54.56-.92,4.11-2.65,7.98-4.4,11.79.24,14.94-2.38,31.09-7.99,44.94l1.38,3.45c-2.24,9.09-3.97,18.27-5.19,27.52l-2.19,2.98c-5.26,2.89-11.71,7.58-16.98,10.98l-1.81-1.1c11.85-55.61,23.7-111.24,35.55-166.87l2.21-.79c3.58-2.92,8.32-2.86,11.98,0Z"/>
              <path class="cls-17" d="M327.55,159.78c3.28-3.02,13.84-4.23,16.98-1,.66-2.91,8.48-1.9,8.99,1,5.3-1.96,10.68-1.96,15.98,0,3.29-1.96,6.69-1.96,9.99,0,.18-.89.52-.86,1,0l1,9.99c-22.97-.44-45.89-1.41-68.9-1l-1.26,1.99c-7.55-.47-15.06-.31-22.53.47,1.65,8.92,3.58,17.79,6.23,26.46l20.39.04,2.16,1.99c20.44.38,41.55,1.18,61.91,1l1,6.99c-.1,2.66-3.15,2.01-4.99,1-20.17.22-40.78.71-60.92,0-6.97-.24-20.37,1.42-25.95-2.52-6.59-4.65-8.81-35.8-11.15-37.29-1.03-.66-11.22-.03-13.83-.14-2.5-2.03-.94-7.99,2-8.99.18-.89.52-.86,1,0,3.96-1.97,8.02-1.96,11.98,0,4.97-1.96,10.01-1.96,14.98,0,3.13-3.02,14-4.24,16.98-1,3.16-3.23,13.68-2.02,16.98,1Z"/>
              <path class="cls-11" d="M263.64,168.77c-4.71,19.45-8.98,39.1-11.98,58.92,1.26,2.39-1.29,8.77-3.99,9.99v9.99c-1.8,3.61-4.36-.34-4.23-3.27,1.77-7.98-.46-7.57-6.66,1.22-5.38,1.8-12.53,2.12-18.06,2.05,5.26-26.42,10.61-52.73,16.98-78.89.18-.89.52-.86,1,0,7.79-3.29,19.26-3.5,26.96,0Z"/>
              <path class="cls-14" d="M217.7,167.77c1.1-2.93,5.38-1.75,5.99,1l-35.95,168.77c-1.5.97-12.23,9.85-12.98,8.98-1.1-1.27,4.58-28.96,5.31-33.12,7.24-41.04,16.84-89.32,28.71-129.07,2.04-6.83,1.92-15.77,8.91-16.56Z"/>
              <path class="cls-14" d="M499.31,168.77c2.25.12,9.94-.48,10.87.12,2.85,1.84,14.78,57.87,16.6,65.78,5.44,23.6,22.24,88.84,21.43,109.4-.22,5.48-8.72-4.47-11.95-6.54l-36.95-168.77Z"/>
              <path class="cls-4" d="M463.36,169.77c3.93,21.3,8.13,42.59,11.98,63.91l-2.6-.35c-9.08-13.51-28.91-12.61-32.09,4.83l-2.26,1.51v19.97c2.68,1.91,2.7,4.09,0,5.99,2.17,9.13,2.17,18.45,0,27.96,1.91.6,1.9,1.49,0,2,1.03,3.82-9.57.3-9.85-.14-.65-1.02-.05-14.86-.14-17.83l-1.35-.81c-.08-12.95-.21-26.07-.38-39.37l1.73-1.76c6.59,3.1,14.65-4.87,13.77-11.18-1.06-7.66-12.09-1.06-13.77-2.79-.38-.39.59-4.11-.17-4.83-2.17-2.06-9.14-2.97-8.81-8.16,5.96-.45,13.37.77,17.44-5.03,3.4-4.85,6.58-32.5,8.67-33.77,1.37-.84,14.81,0,17.83-.14Z"/>
              <path class="cls-13" d="M218.7,247.66c4.36-3.84,12.95-1.83,16.31-3.16,1.24-.49,5.72-9.52,10.13-7.84,2.15.82-2.06,10.95,2.51,11v4.99c-.82,9.48-2.04,18.84-4.7,28l-2.29.96c-2.65,1.44-4.91,3.65-6.78,6.62-5.29-.9-10.47.62-15.53,4.56-3.79,2.22-6.34,2.15-7.65-.19,2.65-15.05,5-29.93,7.99-44.94Z"/>
              <path class="cls-19" d="M240.67,281.61c.77.14,1.93.47,1.93,1.02.05,3.32-1.1,25.27-1.8,26.97l-2.13,1.97c-11.07,5.19-23.22,9.07-33.95,14.98.45-11.56,4.01-22.7,5.99-33.95,6,.17,10.51-4.18,16.75-6.8,1.73-.72,4.29,1.18,5.61.75,1.23-.4,2.98-8.11,7.59-4.93Z"/>
              <path class="cls-13" d="M276.62,258.64c.79,1.89.7,39.29-.45,40.99-1.84,2.73-17.61,3.51-20.52,3.94,1.16-5.63-1.52-43.29,0-44.94.85-.92,8.34,2.05,10.48,1.98,2.42-.09,9.82-3.57,10.49-1.97Z"/>
              <path class="cls-13" d="M467.36,258.64c.85,2.13,1.51,44.87-.51,45.95-.92.49-19.77-4.26-20.32-5.15-1.07-1.74-.92-38.91-.14-40.8.59-1.41,8.9,1.98,11.46,2.03,2.17.04,8.92-3.53,9.52-2.03Z"/>
              <path class="cls-13" d="M303.58,258.64c.69-1.66,7.74,1.91,10.37,1.87,4.78-.07,9.81-4.76,10.6-.87.48,2.38,1.11,30.81,0,31.96-.73.76-20.23,2.74-20.98,2-1.24-1.23-.67-33.34,0-34.96Z"/>
              <path class="cls-13" d="M398.45,258.64c1.24-1.41,8.27,2.03,11.44,2.01s9.22-3.41,9.52-3.01c.33.44-.05,9.05.01,10.98v3c.02.66-.01,1.33,0,2,1.63.93,1.63,2.06,0,3-.04,1.33.06,2.67,0,3.99-.1,2.14.46,12.52,0,12.99-.7.72-19.27-1.29-19.98-2-1.17-1.16,1.6-28.73-.99-32.96Z"/>
              <path class="cls-13" d="M371.49,258.64c1.05,2.67,1.55,30.96,0,30.96h-20.97c1.55-3.48,1.07-7.32,1-10.98-1.94-.91-1.93-2.08,0-3-1.87-4.71-1.61-10.22,0-14.98v-1c-.78-.29-.77-.62,0-1l1.98-1.31c5.18,1.77,10.88,1.42,16.08-.12l1.92,1.43Z"/>
              <path class="cls-20" d="M372.49,256.65c.89.25.86.58,0,1-.3.3-.62.85-1,1-5.64,2.23-14.55,2.73-19.97,0-.55.93-.89.59-1-1-4.05-8.85-2.2-28.49,10.41-29.05,13.87-.62,15.36,18.61,11.56,28.05Z"/>
              <path class="cls-4" d="M489.33,312.57c-2.03-.92-13.46-3.51-13.86-4.11-.61-.92-.02-14.94-.12-17.86-.11-3.32.07-6.67,0-9.99v-4.99c-.06-7.63-.14-15.34,0-22.97v-3.99c.25-2.34,1.08-4.6,1-6.99,4.25,23.61,8.76,47.28,12.98,70.9Z"/>
              <path class="cls-15" d="M446.38,95.87c3.35.11,7.76,9.72,4.99,11.98l2.31.9c1.15,2.02,3.42,14.76.68,16.07-2.62,1.96-5.37,1.96-7.99,0l-2.01-1.15c2.58-12.2-.08-16.73-7.99-13.61l-1.98-1.22c-2.23,1.93-6-1.34-4.99-3.99-2.86-2.59-3.35-12.08,0-13.98,1.62-2.92,11.31-2.55,13.98-1,2.63-.57,3.62,1.43,3,5.99Z"/>
              <path class="cls-15" d="M446.38,124.83c3.08,5.06,2.98,11.89,0,16.98l-.94,1.98-14.24-.21.3,15.08-2.1,1.13c-5.65.02-11.33-.02-16.98,0-3.3-.79-3.04-12.6,0-13.98l1.11-2.27c9.52-3.51,19.86-9.16,25.51-17.82l2.34-.89c.07-2.98,4.46-2.75,4.99,0Z"/>
              <path class="cls-15" d="M378.48,56.92c3.44,1.63,3.44,14.72-1,14.98-2.04.87-4.66.35-7.85-1.57-4.04-.31-6.75-1.45-8.13-3.42-3.12-.57-2.98-9.15,0-9.99,5.06-3.08,11.89-2.98,16.98,0Z"/>
              <path class="cls-15" d="M395.45,73.9c2.98,5.09,3.08,11.92,0,16.98-.57,3.12-9.15,2.98-9.99,0-2.02-1.47-3.24-4.25-3.66-8.35-2.12-3.37-2.9-6.24-2.33-8.63,1.65-3.27,14.04-3.13,15.98,0Z"/>
              <path class="cls-15" d="M395.45,56.92l.92-2c4.24-.63,17.81-1.59,18.27,3.31.6,1.79.52,15.45-2.21,15.66-5.16,2.85-11.89,2.94-16.98,0-2.94-5.08-2.85-11.82,0-16.98Z"/>
              <path class="cls-15" d="M344.52,29.96c3.09.48,2.95,8.25,0,8.99l-1.84,1.71c-24.44.84-10.5,24.12,4.21,6.47-.87-2.51-1-4.57-.37-6.18.27-4.44,13.35-4.44,14.98-1,2.88.51,2.63,13.28,2,15.58l-2,1.4-1.43,2.02c-12.82-3.02-17.13.91-12.93,11.78l-1.62,2.17c1.89,2.11.57,3.05-2,2-1.58,1.33-3.73,1.61-6.44.84-4.52.79-7.7.18-9.54-1.83l-2-.96.24-13.88c-3.68.55-5.75-.16-6.24-2.14-.28.42-.58.79-.96,1-.48.26-8.08-4.73-8.02-5.99-3.32-.94-2.78-9.27,0-10.98,11.65-5.47,20.91-9.28,33.95-10.98Z"/>
              <path class="cls-15" d="M327.55,73.9c3.15,4.52,2.96,12.31,0,16.98l-1.4,1.98c-9.83-2.28-14.37-.73-13.63,4.64l-1.95,1.37c.06.5.08.98-.07,1.4-.28.81-14.25,5.73-15.91,3.6-3.23-.45-3.87-9.68-1-10.98l-.22-2.12c6.98-4.83,13.22-10.75,18.88-17.07l2.31.21c4.3-1.96,8.69-1.96,12.98,0Z"/>
              <path class="cls-15" d="M337.53,90.87c1.79,1.03,2.74,3.17,2.83,6.41,2.51,3.11,3.23,5.63,2.16,7.57,2.8.08,2.99,1.17,1,3-2.17,3.68-14.48,3.06-17.01.05-1.85-2.21-2.09-15.4,1.03-17.02.57-3.12,9.15-2.98,9.99,0Z"/>
              <path class="cls-15" d="M378.48,39.94l.92-2c4.24-.63,17.81-1.59,18.27,3.31.6,1.79.52,15.45-2.21,15.66-5.16,2.85-11.89,2.94-16.98,0-1.95-5.64-1.96-11.34,0-16.98Z"/>
              <path class="cls-15" d="M412.43,90.87c2.51,2.79,2.51,5.24,0,7.99l1.09.79c-2.59,4.58.94,7.98,10.59,10.22,4.65,1.49,6.74,3.81,6.3,6.96,3.46,11.29-6.72,12.02-13.98,7.99-.78-6.26-4.46-9.6-10.66-11.59-9.23-2.96-10.39-1.11-5.84,6.78.69,4.14-5.53,9.06-8.46,5.81-16.07,3.65-18.44-5.15-12.98-17.98.24-.86.58-.84,1,0l2.02-1.73c10.93,3.38,14.91-1.23,11.94-13.8l2.02-1.45c5.63-1.96,11.34-1.96,16.98,0Z"/>
              <path class="cls-15" d="M378.48,29.96c3.12.57,2.98,9.15,0,9.99-5.16,2.85-11.89,2.93-16.98,0-3.15-.68-3.01-10.03,0-10.98,6.17-.04,10.86.13,16.98,1Z"/>
              <path class="cls-15" d="M458.37,141.8c3.73,2.39,7.26,13.13,4.99,16.98.87.28.86.62,0,1-5.65.05-11.33-.03-16.98,0-2.17-1.32-2.84-4.48-2-9.51-.77-4.19-.1-7.02,2-8.47.81-3.18,10.9-3.04,11.98,0Z"/>
              <path class="cls-15" d="M412.43,73.9l.92-2c4.31-.64,18.28-1.67,18.29,3.66.6,2,.52,15.14-2.23,15.31-5.63,1.97-11.34,1.97-16.98,0-2.91-5.09-2.85-11.82,0-16.98Z"/>
              <path class="cls-4" d="M247.66,252.65c0,7.79,1.34,51.98.04,55.24-.46,1.15-7.19,2.81-9.03,3.68l2-29.96,6.99-28.96Z"/>
              <path class="cls-15" d="M378.48,135.81c1.82,4.73,6.94,6.04,15.35,3.94l1.63,2.05c2.8-.77,2.43,15.76,2,16.55s-1.2,1.17-2,1.43c-4.98.01-10-.01-14.98,0-.33,0-.67,0-1,0l-2.14-.62c-.79-2.4-4.4-20.83-4-22.01,1.25-3.69,3.61-5.02,5.14-1.34Z"/>
              <path class="cls-15" d="M411.43,129.82c2.96-.47,3.72,5.03,1,5.99l.1,1.38c-2.89,1.63-5.92,3.17-9.09,4.61-.58,2.83-7.24,2.9-7.99,0-3.04-.37-2.94-7.3,0-7.99,3.19-3.81,11.34-5.71,15.98-3.99Z"/>
              <path class="cls-23" d="M454.37,124.83c.28-.87.62-.86,1,0,4.23,1.37,5.61,13.83,3,16.98h-11.98c0-5.64.14-11.34,0-16.98,2.66,0,5.33,0,7.99,0Z"/>
              <path class="cls-23" d="M434.4,108.85c16.56-5.14,11.68,3.8,11.98,15.98h-4.99l-1.89-1.21c-.03-4.81-2.8-9.08-5.86-12.63l.75-2.13Z"/>
              <path class="cls-23" d="M446.38,141.8v17.98c-5.65.03-11.33-.02-16.98,0,.47-2.61-.64-17.35,0-17.98.6-.6,14.56,0,16.98,0Z"/>
              <path class="cls-4" d="M342.53,261.64c2.84,2.6,2.91,6.42,0,8.99,1.55.41,1.48,1.17,0,2,2.71.9,2.72,2.08,0,3-.16,2.86.85,13.18-.94,14.54-.82.63-8.73.76-9.06.44-.27-.26.17-4.7,0-6-.23-1.9.08-4.04,0-5.99v-2c-.18-5.64.19-11.34,0-16.98l9.99,2Z"/>
              <path class="cls-23" d="M395.45,133.82v7.99c-7.28-.57-19.88,3.59-16.98-5.99.16-.81.35-1.74,1.02-2.25s15.26-2.25,15.96.25Z"/>
              <path class="cls-23" d="M403.44,141.8c2.12,1.72,4.62,2.43,7.52,2.15l1.47,1.85v13.98c-5.65.02-11.33-.01-16.98,0v-17.98c2.2.17,6.43-.5,7.99,0Z"/>
              <path class="cls-10" d="M463.36,124.83l.92-1.99c4.24-.63,17.81-1.59,18.26,3.31.6,1.79.52,15.45-2.21,15.66-.85,3.11-15.21,2.67-16.97,1.47-1.85-1.27-2.2-14.38-1.98-17.19l1.97-1.25Z"/>
              <path class="cls-10" d="M489.33,141.8c3.56.93,5.66,13.96,5.99,17.98-10.58.45-21.35-.1-31.96,0v-1l1.17-2.09,14.92.28-1.03-13.77,1.92-1.39c.68-2.89,8.38-3.34,8.99,0Z"/>
              <path class="cls-10" d="M476.34,107.85c-.81,3.18-10.9,3.04-11.98,0l-1.99-.96.04-14.4c-.87-.92-14.58-.24-16.03,3.38-.91-2.33-2.16-4.12-3-5.99l-2.88-1.49c-10.5-21.28-25.51-42.17-47.43-52.62l-1.62-2.82c40.28,8.49,67.33,39.75,84.88,74.9Z"/>
              <path class="cls-10" d="M464.36,107.85c3.21,3,2.1,14.1-1,16.98-2.57,2.67-5.43,2.7-7.99,0h-1c-.78-4.93-1.64-12.37-3-16.98.92-3.19,11.7-3.09,12.98,0Z"/>
              <path class="cls-17" d="M350.52,257.64c-.5,6.1-.17,12.09,1,17.98.02,1-.02,2,0,3-5.56,3.21-3.36-3.45-8.99-3,.05-.99-.04-2,0-3,.48-.74.56-1.4,0-2,.1-2.98-.03-6,0-8.99.05-4.74-1.5-13.08,2-15.98l1.41.28c1.11,4.03,2.79,7.78,4.58,11.71Z"/>
              <path class="cls-17" d="M227.69,159.78c.68-3.15,10.03-3.01,10.98,0,2.58,1.28.4,8.28-2,8.99-.33,0-.67,0-1,0-3.98.04-8-.09-11.98,0-2.09.05-4.97-1.11-5.99-1-.9-2.6-1.13-5.24-1-7.99h10.98Z"/>
              <path class="cls-17" d="M380.48,277.62c-9.93-.38-6.98-11.04-7.99-19.97-.04-.33.04-.67,0-1,.51-3.59,4.21-9.4,7.99-7.99.36,9.6-.57,19.39,0,28.96Z"/>
              <path class="cls-4" d="M400.45,208.71c.76,3.16-9.58,3.09-11.49,3.07s-13.09-.41-13.48-3.07c2.11-.02,4.09-.99,4.99-1,5.98-.08,13.25,1.15,19.97,1Z"/>
              <path class="cls-17" d="M349.51,285.61c1.57,1.87-1.3,6.1-2.98,3.98-1.31-1.65,1.94-5.22,2.98-3.98Z"/>
              <path class="cls-23" d="M395.45,56.92c.14,5.63,0,11.34,0,16.98h-15.98c-2.37,1.56-3.14.53-2-2,1.86-4.35.99-10.25,1-14.98,5.64,0,11.34-.14,16.98,0Z"/>
              <path class="cls-23" d="M361.5,56.92v9.99c-1.53,1.94-4.13,3.13-7.8,3.57-3.05,2.1-5.77,2.91-8.17,2.42-4-20.73-.24-15.57,15.98-15.98Z"/>
              <path class="cls-23" d="M378.48,39.94c0,5.65.01,11.33,0,16.98-5.64,0-11.34-.14-16.98,0v-16.98c5.64-.01,11.34-.14,16.98,0Z"/>
              <path class="cls-23" d="M395.45,90.87c-.42,16.47,4.6,19.49-15.98,16.98-.55-2.69.37-5.78,2.77-9.27.35-3.51,1.42-6.08,3.22-7.7h9.99Z"/>
              <path class="cls-23" d="M429.41,90.87v13.98c-2.55.78-5.62.07-9.2-2.12-3.89-.45-6.48-1.74-7.78-3.88.04-2.66-.01-5.33,0-7.99,5.65,0,11.33.01,16.98,0Z"/>
              <path class="cls-23" d="M391.46,32.95c22.73,8.56,42.28,35.28,51.93,56.92-3.99,1.86-9.59.99-13.98,1,0-2.43.61-16.38,0-16.98s-14.39.07-16.98,0c-.07-2.59.61-16.38,0-16.98s-14.39.07-16.98,0c-.07-2.59.61-16.38,0-16.98s-14.39.07-16.98,0v-9.99c5.61.79,7.51.94,12.98,3Z"/>
              <path class="cls-23" d="M361.5,28.96v10.98c-4.73,0-10.63-.86-14.98,1-2.48,1.3-3.31.46-2-2v-8.99c6.15-.81,10.79-.96,16.98-1Z"/>
              <path class="cls-23" d="M412.43,73.9c.14,5.63.03,11.34,0,16.98-5.65,0-11.33,0-16.98,0,.14-5.63,0-11.34,0-16.98,5.64,0,11.34-.14,16.98,0Z"/>
              <path class="cls-23" d="M259.64,90.87c2.94,2.51,3.78,10.19,1,12.98.92.1.86.45,0,1-.77,2.67-1.85,5.82-4.99,3.99-1.42,2.8-7.51,2.08-7.99-1,3.22-6.43,5.08-10.66,8.99-16.98,1.84-1.74,2.84-1.74,3,0Z"/>
              <path class="cls-23" d="M310.57,40.94v10.98l-1.05,1.99c-15.46,2.75-33.41,18.96-33.2,35.39l-1.7,1.56c-1.98,2.63-13.32,3.06-14.98,0-1.24-.77-1.24-2.1,0-3.99,14.81-22.23,26.45-34.43,50.93-45.94Z"/>
              <path class="cls-1" d="M476.34,107.85c5.28,10.58,11.28,22.05,12.98,33.95-2.06-.54-6.4.19-8.99,0-.07-2.59.61-16.38,0-16.98s-14.39.08-16.98,0c-.12-4.83,1.06-11.32,1-16.98h11.98Z"/>
              <path class="cls-1" d="M463.36,124.83c.06,2.41.39,16.38.99,16.98.57.56,13.32-.2,15.98,0,.07,2.61,1.65,16.42,1,16.96-.75.63-15.33-.44-17.97.01-1.36-5.28-3.86-11.86-4.99-16.98s-1.05-11.74-3-16.98c2.66,0,5.34-.07,7.99,0Z"/>
              <path class="cls-1" d="M446.38,95.87c-3.16-6.81,17.2-5.78,17.98-5,.6.6-.03,14.43,0,16.98h-12.98c-1.04-3.55-3.58-8.36-4.99-11.98Z"/>
              <path class="cls-23" d="M249.66,124.83c-.97,11.58-4.94,25.09-10.98,34.95h-10.98c-.42-6.58,4.12-12.68,5.99-17.98l1.54-1.72c4.56,1.15,5.98-1.8,4.26-8.83-.03-6.29,6.34-13.13,10.18-6.42Z"/>
              <path class="cls-15" d="M255.65,108.85c.4.24.78.51,1.04.86.54.7-4.15,15.76-7.03,15.12-18.12-4.16,2.14,21.14-15.98,16.98,4.33-12.23,8.16-22.32,13.98-33.95l7.99,1Z"/>
              <path class="cls-15" d="M274.62,90.87c2.29-2.15,3.8-.6,2,2,2.96.95,1.94,10.43-1,10.98-2.09.5-4.59.45-7.5-.15-3.31,1.3-5.8,1.35-7.48.15-.38-4.45-1-8.4-1-12.98,4.36,0,11.05-.65,14.98,0Z"/>
              <path class="cls-15" d="M259.64,90.87h-3c1.28-2.06,2.22-2.84,3-3.99,0,1.33,0,2.66,0,3.99Z"/>
              <path class="cls-19" d="M312.57,168.77l-1,6.99.04,2.1c-4.45,5.12-2.84,12.75,2.95,15.87l3,5.99c-3.54-.07-22.72.53-23.82-.14-1.29-.79-7.33-27.92-7.07-29.41.45-2.5,22.67-1.35,25.9-1.41Z"/>
              <g>
                <path class="cls-4" d="M381.47,169.77c6.42.12,53.68-1.92,54.94.52.69,1.34-5.86,28.54-7.16,29.29-2.16,1.24-43.39,1.1-49.77,1.16-2.83.99-5.75,1.93-8.77,2.02-17.35.51-36.33.3-53.14-3.02-2.94-.3-5.43-3.68-3-5.99l-.41-2.05c2.85-5.58,3.4-12.64-2.58-15.92-2.94-.79-1.95-6.79,1-6.99,7.35-2.16,15.03-2.83,23.02-2.02,15.65-.61,30.95.39,45.89,3.02Z"/>
                <path class="cls-7" d="M348.28,176.01c2,2.1,3.98,20.73-4.99,18.55-8.22-1.99-3.69-27.66,4.99-18.55Z"/>
                <path class="cls-7" d="M374.73,193.48c-2.13-2.25-3.61-21.48,5.01-18.56,8.08,2.74,3.65,27.7-5.01,18.56Z"/>
                <path class="cls-7" d="M405.44,177.26c1.38-3.61,8.99-2.07,8.99,0v14.98c0,2.78-8.99,2.78-8.99,0s-.59-13.44,0-14.98Z"/>
              </g>
              <path class="cls-7" d="M380.48,248.66l-7.99,7.99c-1.11-9.95,2.11-26.51-11.49-26.06-12.14.4-9.77,17.65-10.48,27.05-5.96-4.11-4.83-6.08-5.99-11.98-1.92-9.79-.68-19.93,11.26-23.19,21.31-5.81,24.12,11.07,24.69,26.18Z"/>
              <path class="cls-5" d="M373.48,100.86c1.4.52,1.85,1.81,1.35,3.86,1.93.59,2.81,1.63,2.64,3.13,1.31,3.45-1.75,5.1-4.64,6.39-.49.78,1.28,10.85,1.72,11.27.81.79,14.89.87,16.9.31,13.09-4.45,2.37-7.4,3.95-13.45,1.82-6.98,28.15,3.26,21.01,12.46,1.9,2.32-2.56,7.03-4.99,4.99-5.06,1.61-10.78,2.85-15.98,3.99s-12.43.9-16.98,2c-.63.15-2.81-.23-3,0-1.08,1.33,3.47,20.63,3.99,23.97-3.32,0-6.66,0-9.99,0l-2.24-.82-3.72-20.47c-4.12-7.13-7.69,19.29-7.63,20.53l-2.39.76c-3.27,0-6.88-1-8.99-1-2.43-.27-2.9-2.71-1.43-7.31l3.11-13.31-1.68-2.35c-.61,2.43-15.34.82-15.94.24s-.93-1.38-1.03-2.23c-1.33,2.89-10.88-.24-13.77-1.67-26.54-13.15,6.04-28.56,13.42-23.25s-1.62,12.28-7.91,12.38c8.19,2.15,16.63,3.34,25.02,4.36,2.73,1.47,4.02,1.1,6.2-.81l-1.38-2.11c2.95-5.7,1.95-9.04-2.99-10l-1.62-3.86c-.95.28-1.28-.05-1-1-.68-.78-.61-2.39-1-3-.96-2.84,1.37-2.88,3.74-2.92-.02-2.35.73-3.71,2.26-4.07l2.44.32c4.53,7.55,13.85,6.9,20.21,1.99l2.32.69Z"/>
              <path class="cls-23" d="M319.56,56.92c1.32.55,7.46-.53,7.99,0,.61.59-.07,14.39,0,16.98-4.32,0-8.66,0-12.98,0-.7-2.56.01-5.58,2.12-9.07.21-3.53,1.17-6.16,2.88-7.9Z"/>
              <path class="cls-23" d="M327.55,90.87c.45,17.67-4.94,18.08,15.98,16.98.31.35.69.65,1,1l2.04,2.76c-1.52,8.19-.65,12.01,2.62,11.48l1.33,1.74c-.25.69.29,2.78,0,2.99-1.49,1.1-30.43-3.37-33.24-5.21-6.99-4.58,10.75-1.91,10.36-9.27-.42-7.88-17.55-.43-20.08,2.99-8.83,11.93,12.41,15.77,19.98,17.49l1.14.77c.84,8.45,12.31,7.51,15.84,1.23.63.17,2.81-.24,3,0,1.85,2.31-4.31,18.81-3,22.97-4.98,0-11.3,1-16.98,1-.94.03-1.64-.32-2.07-1.12,2.05-12.03.34-17.15-5.11-15.37l-1.8-1.48c-5.99-2.98-12.29-5.72-18.88-8.23-11.01-3.81-16.17-14.52-4.22-21.63,5.92-2.26,10.94-5.31,15.07-9.15-.99-1.63-.98-2.94.04-3.93-.67-12.22,5.06-7.99,16.98-7.99Z"/>
              <path class="cls-23" d="M343.53,74.9c.37,2.47-.47,5.19-2.52,8.14-.41,3.58-1.56,6.19-3.47,7.83h-9.99c-.14-5.64.15-11.34,0-16.98,5.05,0,11.28-.85,15.98,1Z"/>
              <path class="cls-8" d="M260.64,104.86l2.04,1.18c-3.86,11.99,10.85,16.05,11.76,3.33l2.18-1.52c.54-.19,1.08-.35,1.62-.36,5.88-.14-.73,18.63-2.23,21.62.3,7.33-1.66,14.65-5.9,21.97-.44,3.86-1.59,6.76-3.48,8.7-.33,0-.67,0-1,0-8.97,1.97-18,1.97-26.96,0,3.27-11.67,6.71-23.61,10.98-34.95,1.42-3.76,4.41-13.34,5.99-15.98.45-.75,4.01-3.06,4.99-3.99Z"/>
              <path class="cls-23" d="M293.6,92.87l1,10.98-.66,2.76c-21.92,13.83-2.63,32.8,15.51,35.96l1.13,2.23c3.26.89,3.07,12.54,0,13.98-4.94,0-11.33,1-16.98,1l-2.22-.64c-.58-.7-1.23-16.9,1.22-17.33l-1.14,2c-3.29.57-13.42.9-14.84-2,1.69,2.1,2.33,5.36,1.92,9.79,1.08,3.35,1.1,6.07.07,8.18-3.99,0-8,0-11.98,0-.47-8.83,6.02-17.96,7.77-24.73.57-2.22-.8-4.49-.35-6.29,1.21-4.86,7.91-17.28,2.56-20.9-2.76-.28-3.79-2.65-1-3.99,0-2.94.73-7.85,1-10.98,1.59-1.78,4.6-1.83,9.04-.15,3.38-1.06,6.02-1.01,7.94.15Z"/>
              <path class="cls-15" d="M278.62,159.78c-2.27-1.47-2.92-17.98-2-17.98h15.98c.9,0-.04,15.98,1,17.98-4.98,0-10,0-14.98,0Z"/>
              <path class="cls-15" d="M318.56,141.8c13.25-5.13,8.17,9.76,8.99,17.98-5.72,0-11.92-1-16.98-1v-13.98l1.52-1.8c2.68.6,4.25.2,6.47-1.2Z"/>
              <path class="cls-16" d="M353.51,159.78c2.99-6.69.44-28.24,11.39-23.03,1.14.54,3.69,20.02,4.58,23.03-5.32,0-10.66,0-15.98,0Z"/>
              <path class="cls-19" d="M265.63,159.78c-.28,3.07-1.28,6.01-2,8.99-8.88-.38-18.07-.13-26.96,0-.25-3.22,1.17-6.03,2-8.99,8.97,0,17.99.01,26.96,0Z"/>
              <g>
                <path class="cls-17" d="M284.61,297.59c-1.26.21-6.13,2.94-6.98,1.99-1.37-1.52,1.76-35.87-1.01-40.94-5.27,4.82-12.75,4.07-19.36,2.22l.63,39.94c.22,1.79-.38,2.51-2.25,2.79-.42.06-5.12,6.16-7.02,1.3-1.23-3.13-1.5-61.11-.97-67.21.26-3,2.02-7.89,3.99-9.99,7.84-8.33,25.96-7.61,31.15,3.3,6.06,12.73-.82,50.96,1.8,66.6Z"/>
                <path class="cls-22" d="M263.36,230.89c14.45-3.19,18,17.77,5.54,20.55-14.48,3.24-17.61-17.89-5.54-20.55Z"/>
              </g>
              <g>
                <path class="cls-17" d="M475.34,233.68c.43,2.4.49,5.18,1,7.99.67,3.33.34,5.66-1,6.99v3.99c2.85,7.23,2.91,15.75,0,22.97v4.99c2.94,2.59,2.83,7.35,0,9.99-1.7-.61-6.1,3.04-6.98,1.99-1.35-1.6,1.75-29.47-1-33.95-4.76,5.52-15.98,4.56-20.97,0-2.78,5.12.38,39.34-1.01,40.94s-6.87-3.6-6.98-3.99c-.15-.53.1-1.36,0-2,2.19-9.5,2.19-18.82,0-27.96,0-1.99-.06-4,0-5.99v-19.97c2.66-21.66,26.69-23.14,36.95-5.99Z"/>
                <g>
                  <path class="cls-22" d="M454.09,230.9c15.15-3.53,17.84,18.16,5.53,20.51-14.87,2.85-17.34-17.76-5.53-20.51Z"/>
                  <path class="cls-3" d="M438.4,265.63c6.07,9.77,4,17.96,0,27.96-1.14-7.13,0-20.07,0-27.96Z"/>
                  <path class="cls-3" d="M438.4,259.64c.19-6.28-.73-14.02,0-19.97v19.97Z"/>
                  <path class="cls-3" d="M475.34,280.61v-4.99c.01,1.66-.03,3.33,0,4.99Z"/>
                  <path class="cls-3" d="M475.34,252.65c.03-1.37-.29-1.31,0-3.99v3.99Z"/>
                </g>
              </g>
              <g>
                <path class="cls-17" d="M428.41,235.67c1.93,9.82-.34,30.53,0,41.94l-8.99,3c-2.69-1.25-2.71-2.75,0-3.99.47-1.06.67-1.99,0-3-1.91-.56-1.91-1.43,0-2v-3c-2.1-.66-2.72-3.21-1.88-7.66-6,2.08-14.11,2.26-19.09-2.33-4.87,5.49,5.84,35.62-7.99,25.96,1.16-13.09-2.98-44.04,2.54-53.88,7.85-14.02,32.43-10.2,35.41,4.95Z"/>
                <path class="cls-10" d="M406.16,230.9c15.5-3.71,17.92,18.49,4.52,20.54-13.88,2.12-14.87-18.06-4.52-20.54Z"/>
                <path class="cls-3" d="M419.42,273.62c2.97-.88,3.17,3.77,0,3,.03-.99.02-2,0-3Z"/>
                <path class="cls-3" d="M419.42,271.63c-.03-1,.03-2,0-3v3Z"/>
              </g>
              <g>
                <path class="cls-17" d="M314.57,221.69c18.73.74,17.28,15.86,17.98,28.96,1.68.78,1.65,3.19,0,3.99.07,1.66-.06,3.33,0,4.99,3.2,4.26,2.96,12.52,0,16.98v2c2.93.62,2.74,5.25,0,5.99-13.24.07-3.69-16.79-7.99-24.97-7.25,2.65-14.74,4.54-20.97-1-2.7,3.88.27,26.43-1,27.96-1.07,1.29-5.16-1.82-5.76-3.71-.7-2.2-1.58-42.55-1.22-46.21.9-9.11,10.4-15.32,18.97-14.98Z"/>
                <path class="cls-4" d="M332.54,250.65c2.97-1.09,3.22,4.91,0,3.99-.05-1.33.07-2.67,0-3.99Z"/>
                <path class="cls-10" d="M311.29,230.89c14.56-3.26,17.42,18.59,4.5,20.57-13.79,2.11-16.14-17.96-4.5-20.57Z"/>
                <path class="cls-3" d="M332.54,278.62v-2c.02.66-.03,1.33,0,2Z"/>
              </g>
              <path class="cls-3" d="M351.52,258.64v2c.04,4.98-.07,10,0,14.98-4.55-2.07-1.29-14.2-1-17.98.31.21.55.77,1,1Z"/>
              <path class="cls-20" d="M351.52,260.64c0-.14-.66-.53,0-1v1Z"/>
              <path class="cls-3" d="M342.53,270.63c3.2-.53,2.87,2.65,0,2,.02-.66-.02-1.33,0-2Z"/>
              <path class="cls-21" d="M310.57,51.93c6.17.3,6.54,3.98,8.99,4.99.65,6.03-1.89,11.97-4.99,16.98-2.31,3.72-17.14,17.44-20.97,18.97-9.13,3.66-9.7.94-16.98,0-.14-.02-.88-1.81-2-2-4.19-15.71,21.87-39.63,35.95-38.95Z"/>
              <path class="cls-12" d="M361.5,66.91c4.69-.06,12.38,2.17,15.98,4.99.24.19,1.71,1.67,2,2,3.31,3.79,5.94,11.82,5.99,16.98.08,7.25-2.3,11.08-5.99,16.98-.33-.04-.68.05-1,0-.19.88-.53.85-1,0-5.34-1.38-5.18-2.59-3.99-6.99-.75-.39-1.67-1.13-1.45-1.74,2.62-7.04,4.59-13.39-2.7-18.94-10.29-7.85-24.12,4.1-18.99,15.93l-1.83,1.76c-.02,1.18.21,5.77,0,5.99s-4.85-.32-6,1c-3.45-5.4-5.04-6.77-4.99-13.98.03-5.83,2.23-11.61,5.99-15.98.36-.42,1.59-1.66,2-2,4.18-3.52,10.41-5.92,15.98-5.99Z"/>
              <path class="cls-21" d="M344.52,38.95c.14.04,1.71,1.67,2,2,11.58,13.11-22.23,22.08-18.96,5.54,1.19-5.99,11.92-8.88,16.96-7.54Z"/>
              <path class="cls-21" d="M275.62,103.86c0,1.22,1.11,2.96,1,3.99-.6,5.73-1.39,11.91-9.38,10.98-9.64-1.12-6.14-9.68-6.59-13.98-.03-.33.03-.67,0-1,4.51-2.15,10.71-3.61,14.98,0Z"/>
              <path class="cls-23" d="M412.43,135.81l-1-5.99c.78-.25,4.65-4.9,4.99-4.99,8.41-2.32,13.45,5.79,13.98-7.99,7.48,11.57-10.56,16.06-17.98,18.97Z"/>
              <path class="cls-23" d="M378.48,107.85c.66,16.04-5.04,17.2,12.98,17.98-3.01,1.02-16.38,3.29-18.51,1.03-.47-.49-2.74-12.7-2.55-13.36.26-.88,6.68-2.75,7.07-5.65.31.08.68-.05,1,0Z"/>
              <path class="cls-15" d="M344.52,135.81c2.33,9.59-20.99,9.14-16.98-2,5.02,1.14,12.56.81,16.98,2Z"/>
              <path class="cls-15" d="M344.52,108.85c5.27,5.95,11.6.28,5.99,15.98-10.26,2.64-4.66-8.96-5.99-15.98Z"/>
              <g>
                <path class="cls-13" d="M373.48,100.86c-7.99,6.9-19.9,7.37-24.97-3,.04-2.32-1.71-5.73-1.01-9.51,3.42-18.51,31.15-16.45,28.88,5.92-.32,3.19-2.41,4.77-2.91,6.59Z"/>
                <path class="cls-24" d="M355.22,81.09c11.38-4.07,10.61,13.31,1,11.58-5.86-1.05-6.01-9.8-1-11.58Z"/>
              </g>
            </g>
          </g>
          <g>
            <path class="cls-17" d="M455.37,354.51c9.12.23,4.3-1.09,8.99-2,3.53,3.82,4.08,12.78,1,16.98,3.32,13.62,3.02,29.25,0,42.94-2.99-.01-6,.01-8.99,0-1.73-.3-2.94-1.69-3.63-4.17l-90.16-5.74-1.08-2.07c-.89-.18-.86-.52,0-1-1.97-2.96-1.96-6.02,0-8.99,1.05-.51,2.12-.99,3.22-1.32s2.18-.65,3.25-.64c29.71.43,57.12,3.03,85.46,7.2.39-.13.33-7.77.13-8.13-2.31-4.13-79.37-7.75-90.7-8.08l-1.37-2.01c-2.74-2.86-2.72-6.06,0-8.99,1.57-.52,3.16-.99,4.77-1.32s3.2-.64,4.78-.62c28.19.31,53.46,2.84,79.95,7.94,4.3,2.51,2.75-6.86,1.38-8.33-1.92-2.05-18.88-4.11-22.48-4.51-22.21-2.48-44.79-3.6-66.94-4.14l-1.45-2.01c-1.85-.31-2.58-2.5-2.18-6.56-23.71,1.45-46.95,4.64-69.72,9.56-6.11,4.75-14.3,6.88-21.97,5.99-.98,2.86-6.72,4.73-8.99,3-3.33-1.75-3.05-13.7,0-15.98,3.03-1.14,5.14-1.75,8.99-3,1.62.36,2.42,2.03,2.43,5,50.08-12.28,104.09-8.73,156.17-2.6l24.15,1.44,5,2.15Z"/>
            <path class="cls-5" d="M455.37,348.52c2.71.83,1.78,2.41,0,3.99v2c-52.02-1.32-89.86-11.31-146.28-5.97-6.55.62-39.09,7.91-40.95,6.98-1.21-.6-.19-5.56-.51-7.01,44.32-14.34,147.11-25.48,187.74,0Z"/>
            <path class="cls-16" d="M464.36,352.51c19.08-3.67,90.44,53.73,81.88,60.91-1.53,1.28-34.67.05-39.94,0l-1.48-2.44c3.04-13.7-4.37-21.38-15.35-27.81l-22.88-10.8-1.24-2.88c-.08-5.44-.48-11.55-1-16.98Z"/>
            <path class="cls-10" d="M258.64,351.52v15.98c.87.28.86.62,0,1-1.58,2.33-4.25,3.9-8.01,4.73-4,2.82-7.65,3.9-10.97,3.26l-1.2,2.85c-6.53,3.33-12.7,7.24-18.7,11.43l-3.07-.3c-2.68,4.43-6.62,8.21-11.81,11.32-3.97,4.23-8.35,7.45-13.15,9.65.83.87.16,1.53-2,2-1.98-.04-13.95,3.13-13.97-.48,0-1.04,10.32-14.99,12.01-16.96,18.33-21.5,44.86-34.72,70.87-44.47Z"/>
            <path class="cls-1" d="M506.3,413.43c-13.63-.1-27.26-.93-40.94-1-.15-14.29.21-28.65,0-42.94,18.81,10.01,48.29,15.85,40.94,43.94Z"/>
            <path class="cls-16" d="M361.5,399.45c0,.33,0,.67,0,1,2.87,1.11,2.68,9.83,1,11.98-31.78-.04-63.59-.04-95.38.08l-3.48-4.07.68-2.13c6.83-1.84,13.73-3.42,20.69-4.72l1.6,1.86c24.51-4.72,50.02-5.99,74.9-3.99Z"/>
            <path class="cls-6" d="M361.5,400.45l93.23,5.94,1.64,6.04c-31.27-.11-62.6.04-93.87,0-1.7-3.68-.96-8.04-1-11.98Z"/>
            <path class="cls-23" d="M258.64,405.44c1.69-3.12,5.41.63,3,3-4.1,7.37-21.79,3.41-30.51,3.92-13.63.81-26.6,1.4-41.39,1.07.29-1.07,1.47-1.42,2-2l4.32-2.16,18.71.43c.02-5.51,0-11.02-.05-16.52l1.98-2.72c8.24-5.75,13.89-9.44,22.97-13.98l1.37.17c.28,8.48.14,17.23-.41,26.27,5.58.77,11.21.94,16.9.51l1.12,2.02Z"/>
            <path class="cls-19" d="M267.63,364.5l1.6,1.88c-.79,3.45-1.24,7.28-.6,10.11,2.83-.31,6.51,6.05,3.99,7.99l-.51,2.17c-4.58.52-4.42,10.84,2.27,7.72l14.7-1.75,1.52,1.85c4.27,2.84,1.42,8.8-3.99,8.99-7.1.46-17.79,4.3-22.97,4.99-.55.07-1.46.09-2,0-.21-.03-1.49-2.92-3-3-.47.05-.92.06-1.33-.08-1.71-.57-1.78-34.29-.67-35.7l2-1.17v-1c2.71-2.04,5.95-2.12,8.99-3Z"/>
            <path class="cls-17" d="M455.37,348.52c.63.39,7.63.42,0,3.99v-3.99Z"/>
            <path class="cls-6" d="M289.6,358.51c.19-.05,1.11-2.05,2.95-2.51,8.37-2.11,65.83-11.66,68.96-8.48.28.29-.11,6.51,0,7.99,14.03,0,83.41,2.96,92.18,9.18,2.34,1.66,2.19,11.19,1.68,11.79-1.36,1.59-35.52-5.5-41.45-5.97-17.36-1.39-34.99-2.03-52.41-2.02.05,2.99-.05,6,0,8.99,10.39,0,91.88,4.2,93.94,8.58.24.52.32,10.98-.07,11.39-1.42,1.53-35.56-4.56-41.46-4.97-17.03-1.19-35.35-2.03-52.4-2.02,0,2.99-.02,6,0,8.99-24.95,1.14-50.02,2.37-74.9,3.99,4.81-2.8,3.56-4.54,3.99-8.99,1.25-.61,2.51-1.19,3.82-1.64s2.58-.86,3.88-.98c18.2-1.62,37.02-3.18,55.27-3.3,1.31,0,2.63.28,3.97.61s2.66.8,3.97,1.31c-2.73-4.23-2.69-8.73,0-12.98-2.69.98-5.46,1.89-8.33,2.06-18.1,1.1-35.97,2.33-54.04,3.8-2.87.23-5.73-.28-8.53-.87-2.67-2.91-2.7-6.09,0-8.99-.89-.18-.86-.52,0-1,19.48-5.25,41.58-5.75,61.98-5.91,1.48-.01,2.96.28,4.46.61s2.99.8,4.46,1.31c-3.07-2.65-2.8-10.17,0-12.98-2.4.96-4.87,1.9-7.47,2.04-18.71,1.06-37.07,2.26-55.74,3.84-2.59.22-5.17-.3-7.69-.89-2.54.77-2.76-.05-1-2Z"/>
            <path class="cls-23" d="M289.6,358.51c.19.63.95,1.47,1,2,3.36,1.61,3.07,10.12,0,11.98,0,.33,0,.67,0,1l-.61,2.1c-6.55.89-13.11,1.79-19.66,2.68l-1.69-1.78c-.06-.14-1.58.86-2.08-1.43-.62-2.84.32-7.63,1.09-10.56,7.31-2.12,14.64-3.98,21.97-5.99Z"/>
            <path class="cls-8" d="M258.64,368.49v36.95c-3.36-.17-18.14.88-19.54-.94-1.98-2.58,1.33-23.43.56-28.02,6.09-3.05,12.15-6.7,18.97-7.99Z"/>
            <path class="cls-15" d="M216.7,390.46c-.56,2.94.75,20.24,0,20.98-.88.88-21.58-.67-24.97,0,7.42-8.19,15.96-14.68,24.97-20.97Z"/>
            <path class="cls-23" d="M290.6,382.47c3.01,1.93,3.35,10.33,0,11.98-3.23.25-21.92,3.05-22.97,2-.39-.38-.16-10.41.13-10.87.13-.21,3.84-.83,4.87-1.12l.94-2.28c1.58-.92,16.05-2.49,17.04.28Z"/>
            <path class="cls-13" d="M290.6,373.48c.02,2.98.08,6.01,0,8.99-5.2.75-13.05.63-17.98,2-1.33-3-2.72-4.74-3.99-7.99l21.97-3Z"/>
            <path class="cls-16" d="M361.5,377.48c.07,4.31-.01,8.67,0,12.98-23.69.01-47.33,2.16-70.9,3.99.37-3.78-.1-8.09,0-11.98,23.41-3.36,47.21-4.99,70.9-4.99Z"/>
            <path class="cls-16" d="M361.5,355.51c.31,4.25-.08,8.7,0,12.98-23.72.02-47.34,1.71-70.9,3.99-.03-3.84.36-8.28,0-11.98,23.47-3.69,47.16-4.99,70.9-4.99Z"/>
          </g>
          <g>
            <path class="cls-12" d="M504.3,688.05c.58,1.59-.36,2.66-2.82,3.2-2.87,4.57-5.59,9.16-8.16,13.77-84.99,6.07-179.13,6.2-264.11-.02-14.9-1.09-52.17-2.6-64.44-6.97-5.7.06-14.5-5.73-9.99-10.98,32.2,1.03,65.14,1.87,97.32,2.05,84.02.47,168.19-1.33,252.2-1.05Z"/>
            <path class="cls-24" d="M456.37,424.41c11.99.19,24.01.74,35.95,1,4.86,1.33,13.88,5.87,13.98,10.98-127.82.25-255.64.25-383.47,0,9.31-7.84,22.77-9.79,34.48-10.96,34.49-3.45,74.21-.54,109.33-1.02,63.24-.87,126.5-1,189.74,0Z"/>
            <path class="cls-4" d="M504.3,544.25c-3.99-35.28,48.63-75.68,81.88-54.94-5.87,2.16-13.3,5.93-17.97,10l-3.11,1.42c-12.36-2.88-36.95-7.21-38.39,10.48,7.68,2.9,15.98,4.67,24.89,5.32,1.38.16,1.67,1.35,1.63,2.76-8.76,18.43-10.03,43.54-3.99,62.91l-2.53,1.68c-20.04-2.71-44.67-16.42-42.41-39.62Z"/>
            <path class="cls-4" d="M220.7,558.23c-1.23-.16-1.93-.65-2.09-1.48-6.03,15.85-25.32,17.57-40.02,16.32l-1.83-1.87c.2-1.27,1-6.83,1-7.49v-14.98c0-6.79-5.73-26.21-8.99-32.46l2.3-2.26c3.2.44,27.48-4.64,21.65-10.54-7.96-8.05-25.95-6.98-35.79-3.07l-2.15-1.11c-5.09-4.47-11.21-8.52-17.97-10,45.71-20.7,86.64,24.67,83.88,68.92Z"/>
            <path class="cls-7" d="M220.7,558.23c1.69,38.06-44.2,82.17-82.88,62.93,21.1-4.4,35.81-30.15,38.94-49.94,13.12-1.16,25.36,2.09,35.47-7.97,3.88-3.86,7.88-18.25,8.47-5.01Z"/>
            <path class="cls-13" d="M584.19,512.29c3.97-2.58,9.07,1.39,4.99,4.99l-.07,2.74c-21.02,16.56-16.24,73.92,12.38,77.94,27.03,3.79,35.19-31.09,32.84-51.86l1.79-1.86c.25-2.66.68-5.74,3.99-3.99,1.08.61,2.08,1.94,3,3.99.05.65,0,1.34,0,2-.29,2.93.05,4.92,1,5.99,1.88,85.27-93.4,77.13-85.88-3.99l6.61-3.16c2.76-5.95,4.96-12.15,6.59-18.58,2.35-4.95,7.05-14.64,12.77-14.21Z"/>
            <path class="cls-7" d="M504.3,544.25c2.69,23.73,23.31,35.36,44.94,37.95,2.61,8.39,9.47,19.51,15.46,25.99,2.89,3.13,19.05,12.93,18.49,13.94-2.54,4.52-25.95,2.8-31.15,1.72-31.02-6.41-56.06-49.12-47.73-79.6Z"/>
            <path class="cls-18" d="M207.71,631.13c-3.79-1.01-3.21-10.82-1-13.98,34.07-32.7,33.67-95.32-2-126.83-2.32-2.98-1.63-11.75,2-12.98,52.32,35.45,52.49,117.28,1,153.79Z"/>
            <path class="cls-13" d="M516.29,477.34c.85-.15,1.56.04,2.11.67l-.11,12.32c-35.41,31.75-36.25,95.89-1,127.82,2.29,3.08,1.64,11.76-2,12.98-51.11-37.05-50.89-117.64,1-153.79Z"/>
            <path class="cls-24" d="M249.66,587.19c3.77,20.6-1.62,45.16,1.02,65.39.75,5.77,7.68,15.95,6.97,16.49-1.75,1.31-41.72-.81-43.71-1.72-5.39-2.45-6.92-18.96-7.22-24.23,18.74-10.87,36.67-35.4,42.94-55.92Z"/>
            <path class="cls-4" d="M518.29,644.11c28.06,15.59,52.95,10.28,82.89,10.98l1.54,2.11c-2.93,8.79-10.77,15.34-19.51,17.86-23.33,2.06-52.67.47-76.89,1l6.77-11.71,5.22-20.25Z"/>
            <path class="cls-24" d="M207.71,466.36c1.32-1.57,4.2-14.98,4.99-14.98h42.94c-9.83,22.31-2.07,47.49-5.99,70.9-5.78-19.03-24.72-45.71-41.94-55.92Z"/>
            <path class="cls-13" d="M207.71,631.13c-28.29,20.06-57.27,17.27-90.87,15.98-.8-.11-1.98-.29-2.13-.89-.49-1.98-2.87-19.37-2.66-20.38l1.79-1.7c34.79,12.92,61.39,23.23,92.87-6.99l1,13.98Z"/>
            <path class="cls-4" d="M606.16,463.36c.8.11,1.98.28,2.12.88.59,2.4,2.92,19.78,2.68,21.43l-1.81,1.66c-32.61-14.51-56.19-24.91-88.88,1l-1,1c-.36.3-.65.69-1,1-4.07.54-1.16-9.28-2-12.98,10.19-7.1,28.01-14.98,40.44-14.98h38.95c2.14,0,7.64.77,10.49,1Z"/>
            <path class="cls-13" d="M206.71,477.34l-2,12.98c-32.23-28.47-57.38-17.5-90.87-3-.74-.3-1.83-.75-1.84-1.38-.06-2.93,1.85-18.86,2.68-21.43l2.16-1.16c31.8-2.8,62.65-4.47,89.88,13.98Z"/>
            <path class="cls-4" d="M607.16,624.14c2.81-.7,3.35.91,3.82,3.46,1.22,2.64-1.46,17.92-4.82,19.5-32.61,1.33-63.57,3.81-90.87-15.98l2-12.98c32.54,29.47,55.72,19.02,89.88,5.99Z"/>
            <path class="cls-7" d="M569.21,687.05c2.8,5.95-5.28,10.68-10.98,10.98-12.71,4.63-49.62,5.9-64.91,6.99-3.4-.39,6.23-14.74,6.92-15.3.75-.6,3-1.35,4.06-1.67,12.15-3.66,48.49.07,64.91-1Z"/>
            <path class="cls-4" d="M596.18,445.39c3.31.44,7.26,6.25,4.99,8.99-30.05.98-57.4-3.95-84.88,11.98l-6.99-19.97c28.91.25,58.06-1.29,86.88-1Z"/>
            <path class="cls-19" d="M561.23,425.41c7.65,1.53,15.04,3.56,22.12,6.91,1.73,2.24.68,3.6-3.14,4.08h-42.94c-2,0-4-.02-5.99,0-1.04.99-3.04,1.32-5.99,1-1.33-.06-2.67.08-3.99,0-5.06.02-10.06-.31-14.98-1l-13.98-10.98c22.74.49,46.33-1.47,68.9,0Z"/>
            <path class="cls-9" d="M506.3,436.4c4.91.15,10.03.69,14.98,1l-398.45-1c127.63,2.94,255.91-3.93,383.47,0Z"/>
            <path class="cls-18" d="M568.22,499.31c-4.06,3.54-12.7,15.17-14.98,19.97-8.1-4.25-35.71-.04-27.41-13.93,8.55-14.3,29.27-8.55,42.39-6.04Z"/>
            <path class="cls-18" d="M168.77,516.29c-2.07-3.96-10.41-13.84-13.98-16.98,29.17-13.4,67.46,11.65,13.98,16.98Z"/>
            <path class="cls-24" d="M602.17,498.31l.9,2.27c-1.49,3.45-14.92,11.46-18.88,11.71-4.61,4.39-7.31,7.5-10.18,13.28-4.08,8.19-4.86,27.87-15.78,22.67,2.25-24.27,15.9-50.86,43.94-49.93Z"/>
            <path class="cls-11" d="M643.11,544.25c-2.12.78-2.65-2.68-3-3.99l-2.3-.81c-4.15-12.64-12.82-26.44-26.52-29.71-3.96-.94-8.43-1.13-10.12.56.27.73.54,1.76.04,2.16-2,1.6-10.15,6.2-12.03,4.83.85-3.37-2.31-4.11-4.99-4.99,7.31-6.97,14.2-7.51,17.98-13.98,22.95.76,39.23,24.84,40.94,45.94Z"/>
            <path class="cls-11" d="M606.16,463.36c3.42.27,11.69-.84,13.99.49,2.61,1.51,4.99,28.1,3.98,29.47-.48.65-13.64-5.4-14.97-5.99l-3-23.97Z"/>
            <path class="cls-24" d="M116.84,463.36l-3,23.97c-1.43.62-14.48,6.63-14.97,5.99-1.01-1.33,1.74-28.1,3.95-29.49,2.06-1.29,10.71-.18,14.01-.47Z"/>
            <path class="cls-24" d="M113.84,624.14l3,22.97c-3.09-.12-10.95.67-12.98,0l-1-1c-2.21-2.06-5.11-25.66-3.99-26.96.53-.61,13.12,4.3,14.97,4.99Z"/>
            <path class="cls-11" d="M607.16,624.14c1.8-.69,15.66-5.32,16.46-5.01,1.58.63-1.49,25.53-2.97,26.99-1.91,1.89-11.22.85-14.49.98.28-6.47,6.03-17.74,1-22.97Z"/>
            <path class="cls-9" d="M266.63,424.41h189.74c-63.3-1.02-126.45-.86-189.74,0Z"/>
            <path class="cls-24" d="M121.83,655.1c.94,4,4.11,8.69,6.96,11.51,4.25,4.21,8.06,4.94,12.01,8.46-1.27-.02-2.85.19-3.99,0l-1-1c-11.31-1.01-18.45-3.7-25.38-13.07s1.52-5.69,11.4-5.9Z"/>
            <path class="cls-11" d="M601.17,655.1c9.52.22,18.71-3.63,11.51,6.02-7.72,10.34-17.18,12.87-29.48,13.96,6.93-5.6,16-10.14,17.98-19.97Z"/>
            <path class="cls-18" d="M600.17,436.4h-19.97l2.99-1.98-21.96-9c13.43.88,28.07,2.1,38.95,10.98Z"/>
            <path class="cls-11" d="M596.18,445.39c5.11.05,20.34-1.15,19.96,7.51-.12,2.66-12.56,1.4-14.96,1.48l-4.99-8.99Z"/>
            <path class="cls-24" d="M125.83,445.39l-3.99,8.99c-2.13-.05-14.7.44-14.97-.49-.14-.48,4.52-7.91,5.67-8.32,2.61-.93,9.82-.01,13.3-.18Z"/>
            <path class="cls-19" d="M154.79,687.05c.62,5.71,5.04,9.22,9.99,10.98-6.67.26-13.97-.74-19.02-5.45-10.86-10.14,3.12-5.72,9.03-5.54Z"/>
            <path class="cls-12" d="M569.21,687.05c6.25-.41,18.44-4.32,8.02,5.53-5.33,5.04-11.95,5.39-19.01,5.46,5.42-1.97,8.83-5.58,10.98-10.98Z"/>
            <path class="cls-9" d="M580.2,436.4h19.97-62.91c14.3-.04,28.64,0,42.94,0Z"/>
            <path class="cls-11" d="M644.11,552.24c-4.42.84-.99-4.77-1-5.99,1.54,1.79.95,3.92,1,5.99Z"/>
            <path class="cls-9" d="M531.27,436.4c.7,4.38-4.29,1.08-5.99,1,1.31-1.69,4.12-.98,5.99-1Z"/>
            <path class="cls-13" d="M519.28,489.33l1-1c-.36.29-.64.7-1,1Z"/>
            <path class="cls-13" d="M103.86,647.11c-.57-.19-.71-.73-1-1l1,1Z"/>
            <path class="cls-13" d="M136.81,675.07c-.43-.07-.82-.6-1-1,.41.04.84.59,1,1Z"/>
            <g>
              <path class="cls-13" d="M161.78,532.27c30.08,94.68-95.71,112.4-81.89,11.98,5.53-14.77,13-32.05,29.02-37.98,25.26-9.36,39.88,13.9,48.57,33.37.97-3.41,2.4-5.87,4.3-7.37Z"/>
              <path class="cls-24" d="M161.78,532.27c-3.47,23.86-11.41-3.44-15.17-9.3-12.75-19.9-36.11-22.54-51.77-4.21l-14.95,25.49c7.26-52.74,65.03-65.03,81.89-11.98Z"/>
              <g>
                <path class="cls-3" d="M112.59,511.54c45.6-7.57,48.84,85.59,7.74,88.63-42.9,3.17-43.15-82.75-7.74-88.63Z"/>
                <path class="cls-7" d="M120.83,520.29c.47.36-4.07,8.32-4.71,10.75-3.76,14.22-3.97,25.8-1.95,40.34.63,4.52,5.77,17.34,5.68,18.3-.44,4.65-10.86-1.26-12.5-2.49-15.02-11.35-14.55-47.02-2.47-60.39,2.88-3.19,12.02-9.51,15.95-6.5Z"/>
                <path class="cls-12" d="M127.84,586.19c-7.44-4.47-6.52-60.01.5-60.93,6.26-.81,12.54,25.32,12.54,30.47,0,3.35-6.93,34.12-13.04,30.45Z"/>
              </g>
            </g>
            <g>
              <path class="cls-3" d="M636.12,544.25c2.26,16.71-2.17,45.94-19.93,53.47-39.3,16.67-57.38-54.68-27.01-80.44,2.03-1.72,9.57-6.02,11.98-6.99,10.82-4.63,23.5,5.85,29.58,14.76,3.34,4.9,8.44,13.83,5.37,19.19Z"/>
              <path class="cls-19" d="M640.12,540.25l-3.99,3.99c-2.31-17.08-16.56-34.38-34.95-33.95.1-.04-.57-1.7.63-2.04,19.15-5.49,34.28,16.73,38.31,32Z"/>
              <path class="cls-7" d="M603.17,591.18c-1.13-.93,6.62-22.03,7.02-28.42.3-4.81.22-11.06-.18-15.87-.49-6-6.88-23.86-6.81-25.16.28-4.8,11.29,1.66,12.96,3.03,14.18,11.59,14.2,45.29,2.94,58.91-2.5,3.02-12.37,10.43-15.94,7.52Z"/>
              <path class="cls-12" d="M595.16,525.28c8.14,4.42,6.41,60.07-.49,60.92-8.35,1.03-11.88-30.36-11.52-35.51.27-3.82,6.73-28.28,12.01-25.42Z"/>
            </g>
            <g>
              <path class="cls-13" d="M215.7,445.39h6.99c3.32-.01,6.66.01,9.99,0h3c.67,0,1.33,0,2,0h1c1.66,0,3.33,0,4.99,0h2c2.99,0,6,0,8.99,0h10.98c.67,0,1.33,0,2,0h10.98c14.96-.04,29.97,0,44.94,0h4.99c15.96,0,31.97-.04,47.93,0h3.99c4.65.01,9.33-.01,13.98,0h3.99c2.33,0,4.66,0,6.99,0h3.99c2.66,0,5.33-.01,7.99,0h3.99c2.33,0,4.66,0,6.99,0h1c1.66,0,3.33,0,4.99,0h2c7.64.03,15.33-.04,22.97,0h2c13.3.07,26.65-.11,39.94,0h3c.67,0,1.33,0,2,0h1c.49,0,1.5.99,2,1l2.35.68c.66.64,6.21,16.39,6.06,17.3s-.75,1.49-1.42,2c-63.76,36.98-62.52,141.9,2,177.75l1.65,1.58c-.67,4.15-3.5,15.78-5.02,19.38-1.54,3.65-4.85,10.04-8.62,10.99-16.57.36-33.39.81-49.93,1-64.58.32-129.16-.01-193.73-1-40.6-.36-81.24-.21-121.83-1-5.9.51-22.14-13.65-20.54-18.19.28-.79.87-1.35,1.57-1.78,31.23-.69,56.03,4.76,84.88-11.98l2.1,1.43c.38,4.51,1.83,18.97,5.96,21.02,1.8.89,39.45,3.59,40.03,1.68l-5.39-11.43c-1.62-22.8-1.54-45.67.25-68.62,6.57-21.48,6.54-43.38,0-64.91-1.8-19.86-1.68-39.69.36-59.48.38-5.47,2.26-9.27,5.63-11.43l-1.8,2h-39.97l-1.17-2c2.89,1.26-2.42,14.91-3.51,15.08-.48.08-.98,0-1.49-.1-26.31-15.6-56.77-11.32-85.88-11.98-2.67-2.01.84-8.76,3.99-8.99,29.21-1.4,60.41.12,89.88,0Z"/>
              <g>
                <path class="cls-9" d="M456.37,677.07l-193.73-1c64.54.58,129.17,1.73,193.73,1Z"/>
                <path class="cls-11" d="M278.62,445.39h-10.98c3.65,0,7.33,0,10.98,0Z"/>
                <path class="cls-11" d="M265.63,445.39h-10.98c3.65-.01,7.33,0,10.98,0Z"/>
                <path class="cls-11" d="M222.69,445.39h-6.99c2.33,0,4.66,0,6.99,0Z"/>
                <path class="cls-11" d="M328.55,445.39h-4.99c1.66,0,3.33,0,4.99,0Z"/>
                <path class="cls-11" d="M380.48,445.39h-3.99c1.33,0,2.66,0,3.99,0Z"/>
                <path class="cls-11" d="M398.45,445.39h-3.99c1.33,0,2.66,0,3.99,0Z"/>
                <path class="cls-11" d="M409.44,445.39h-3.99c1.33,0,2.66,0,3.99,0Z"/>
                <path class="cls-11" d="M421.42,445.39h-3.99c1.33,0,2.66,0,3.99,0Z"/>
                <path class="cls-11" d="M235.67,445.39h-3c1,0,2,0,3,0Z"/>
                <path class="cls-11" d="M504.3,445.39h-3c1,0,2,0,3,0Z"/>
                <path class="cls-11" d="M461.36,445.39h-2c.67,0,1.33,0,2,0Z"/>
                <path class="cls-11" d="M436.4,445.39h-2c.67,0,1.33,0,2,0Z"/>
                <path class="cls-11" d="M245.66,445.39h-2c.67,0,1.33,0,2,0Z"/>
                <path class="cls-11" d="M506.3,445.39c.33,0,.67,0,1,0h-1Z"/>
                <path class="cls-11" d="M428.41,445.39c.33,0,.67,0,1,0h-1Z"/>
                <path class="cls-11" d="M237.67,445.39c.33,0,.67,0,1,0h-1Z"/>
                <path class="cls-12" d="M485.06,644.31c9.75-2.29,11.4,11.01,3.51,12.6-9.36,1.89-11.16-10.8-3.51-12.6Z"/>
                <g>
                  <path class="cls-3" d="M455.37,488.33l1,11.98c.04.66-.04,1.34,0,2,.51,29.28.51,58.57,0,87.88-.02,1.33.03,2.66,0,3.99v27.96c-.07.99.08,2.01,0,3l-1,3.99c-.04.33.05.67,0,1v3.99c-4.28,17.72-18.47,27.37-35.95,28.96-40.87.87-82.98,1.52-123.83-1-15.68-3.22-27.12-18.01-28.94-33.47-2.23-18.9-2.1-132.27,2.8-145.96,3.31-9.24,12.22-18.16,21.47-21.47,13-4.66,127.07-4.74,140.47-.31,11.92,3.94,21.39,15.37,23.98,27.45Z"/>
                  <path class="cls-13" d="M447.38,493.32c-.54.23-.54.56,0,1,.89,1.25.74,3.8,0,4.99,1.22,42.85,1.65,86.95,0,129.82-1.94,13.56-12.95,23.35-25.96,25.96-1.02-.06-1.69-.4-2-1h-3.99c-.32,1.6-1.24,1.5-2,0h-12.98c-.91,1.93-2.08,1.93-3,0h-6.99c-3.3,1.94-6.69,1.94-9.99,0h-4.99c-.88.38-1.88.38-3,0-19.97-.39-39.94-.39-59.92,0-.26,1.73-1.2,1.6-2,0h-6.99c-.03,1.59-1.52,1.5-2,0-14.28-2.04-24.09-11.74-25.96-25.96-.21-44.72.14-89.44,1.06-134.19l.94-.63c5.49-18.99,19.34-22.09,37.98-23.34,32.73.55,65.38.97,97.97,1.25,4.41.3,7.02-.99,7.85-3.87,13.58,1.79,24.09,12.26,25.96,25.96Z"/>
                  <path class="cls-3" d="M437.4,493.32c.87,44.62.89,91.04,0,135.81-2.53,8.45-7.06,13.23-15.98,14.98-39.41.84-80.33.89-119.83,0-8.48-1.59-14.56-7.36-15.98-15.98-.45-44.61-.45-89.21,0-133.82,1.89-10.91,9-15.84,19.43-17.02,19.78-2.24,98.44-2.95,116.79.14,7.58,1.28,14.79,8.11,15.58,15.88Z"/>
                  <g>
                    <path class="cls-9" d="M419.42,663.09c-23.09,2.1-103.23,3.23-123.83-1l123.83,1Z"/>
                    <path class="cls-9" d="M456.37,590.19v-87.88c1.54,27.77.49,59.81,0,87.88Z"/>
                    <path class="cls-9" d="M456.37,622.14v-27.96c-.18,9.15.62,18.93,0,27.96Z"/>
                    <path class="cls-9" d="M456.37,500.31l-1-11.98c1,4.68.7,7.52,1,11.98Z"/>
                    <path class="cls-9" d="M455.37,629.13l1-3.99c-.17,2.06-.92,3.43-1,3.99Z"/>
                    <path class="cls-9" d="M455.37,634.13v-3.99c-.19,1.22.26,2.9,0,3.99Z"/>
                    <path class="cls-24" d="M421.42,467.36c2.05,3.82,1.03,4.28-2.45,5.04-27.36,5.97-112.26-9.38-130.86,6.95-4.73,4.15-5.78,10.66-10.49,13.97-.85.72-1.18.05-1-2,3.7-12.26,9.77-21.8,23.56-23.87,19.68-2.96,101.09-2.75,121.24-.1Z"/>
                    <path class="cls-9" d="M303.58,654.1h6.99c.66.04,1.34-.05,2,0h14.98c4.05-.88,7.38-.54,9.99,1h1c2.92-1.77,7.15-1.96,9.99,0h2c.45-.69.9-1.22,1.37-1.25,6.84-.31,13.75-.09,20.6.25,2.47.77,4.8.77,6.99,0h1c3.32-.02,6.67-.02,9.99,0h6.99c1,.01,2-.01,3,0h12.98c.66-.04,1.34.05,2,0h3.99c.82.08,1.63.09,2,1-24.74,4.98-88.49,1.93-116.39,1-1.92-.06-4.01,1.01-3.44-2,.64.09,1.35-.07,2,0Z"/>
                    <path class="cls-9" d="M275.62,506.3v119.83c.41.55.41,1.21,0,2-.72.56-2.61.19-2.01-1.48,3.45-40.04-4.53-87.79-.06-126.92.42-3.71,2.02-4.18,2.07-4.41.84,3.28.84,6.95,0,10.98Z"/>
                    <path class="cls-11" d="M277.62,493.32c-4.71,15.49,3.31,130.66-2,134.81-.09-.65.06-1.34,0-2-1.6-36.57-1.6-73.19,0-109.85v-20.97c.33-1.67.52-2.4,1-3.99l1,2Z"/>
                    <path class="cls-9" d="M448.38,627.13c-.06-44.08-.06-88.36,0-132.82,5.5,3.72-1.42,117.58,0,132.82Z"/>
                    <path class="cls-2" d="M448.38,627.13h-1c1.74-42.43,1.15-85.37,0-127.82-.11-1.64.18-3.37,0-4.99.29.13.78-.15,1,0v132.82Z"/>
                    <path class="cls-11" d="M447.38,627.13c-.07.65.09,1.35,0,2v-129.82c2.22,33.09,3.37,95.61,0,127.82Z"/>
                    <path class="cls-11" d="M447.38,494.32c-1.3-.6-1.54-.86,0-1,.04.33-.04.67,0,1Z"/>
                    <path class="cls-9" d="M438.4,494.32c.95,1.87.75,4.09,0,5.99v10.98c0,3.99-.02,8,0,11.98v19.97c0,.67,0,1.33,0,2v3.99c0,2,0,4,0,5.99v25.96c0,2,0,4,0,5.99v2c0,4.65,0,9.33,0,13.98v1c0,3.32.01,6.66,0,9.99v12.98l-1,1c-.09.3.09.69,0,1v-135.81c-.18.84.58.72,1,1Z"/>
                    <path class="cls-9" d="M421.42,644.11c-.31.06-.67-.03-1,0-1.18.36-2.51.69-3.99,1h-105.85c-.77,1.26-4.26.58-5.99,0l-2-1c-.33-.05-.68.06-1,0h119.83Z"/>
                    <path class="cls-9" d="M285.61,628.13c-.05-.32.04-.67,0-1-.77-41.62-1.1-83.56-1-125.83v-2l1-3.99c.03-.33-.06-.68,0-1v133.82Z"/>
                    <path class="cls-11" d="M284.61,499.31v2c.37,41.94.37,83.89,0,125.83v-130.82c.97.27.53,2.05,0,3Z"/>
                    <path class="cls-2" d="M285.61,627.13h-1v-125.83l1,125.83Z"/>
                    <path class="cls-11" d="M372.49,654.1c-7.38.01-15.06,1.09-21.97,1h-2c-3.32-.05-6.67.05-9.99,0h-1c-2.78-.05-6.49-.89-9.99-1h-2c-4.29-.16-8.71.29-12.98,0,18.7-.63,41.55-3.04,59.92,0Z"/>
                    <path class="cls-11" d="M438.4,581.2c0-8.64,0-17.32,0-25.96v25.96Z"/>
                    <path class="cls-11" d="M413.43,654.1c-5.52.33-7.92.06-12.98,0h12.98Z"/>
                    <path class="cls-11" d="M438.4,543.25c0-6.64.03-13.33,0-19.97v19.97Z"/>
                    <path class="cls-11" d="M413.43,645.11h3c1.22-.63,2.96-.9,3.99,0h-13.98,6.99Z"/>
                    <path class="cls-11" d="M438.4,628.13c-.54-.24-.51-.58,0-1,.24-4.27-.02-8.69,0-12.98v13.98Z"/>
                    <path class="cls-11" d="M310.57,645.11h3.99c-2.77,1.78-8.22,1.6-10.98,0,.31-.43.64-.42,1,0h5.99Z"/>
                    <path class="cls-11" d="M397.45,654.1c-2.33-.03-4.66.01-6.99,0h6.99Z"/>
                    <path class="cls-2" d="M375.48,654.1h3.99c-2.2,2.72-5.26.29-6.99,0,1,0,2,0,3,0Z"/>
                    <path class="cls-11" d="M310.57,654.1c-2.3-.15-4.71.24-6.99,0h6.99Z"/>
                    <path class="cls-11" d="M438.4,500.31v-5.99c1.83,1.22,1.51,4.56,0,5.99Z"/>
                    <path class="cls-11" d="M380.48,654.1c-.33,0-.67,0-1,0-1.33,0-2.66,0-3.99,0h4.99Z"/>
                    <path class="cls-11" d="M438.4,549.24v-3.99c0,1.33,0,2.67,0,3.99Z"/>
                    <path class="cls-11" d="M419.42,654.1c-1.24-.11-2.75-.09-3.99,0h3.99Z"/>
                    <path class="cls-7" d="M420.42,644.11v1h-3.99c.83-1.55,2.66-.87,3.99-1Z"/>
                    <path class="cls-2" d="M284.61,499.31v-3l1-1c-.11,1.35.53,3.17-1,3.99Z"/>
                    <path class="cls-7" d="M304.58,645.11h-1c-.37-.22-.66-.71-1-1,.82.12,1.61.09,2,1Z"/>
                    <path class="cls-11" d="M438.4,589.19v-2c0,.66,0,1.33,0,2Z"/>
                    <path class="cls-11" d="M438.4,604.17v-1c0,.33,0,.66,0,1Z"/>
                    <path class="cls-17" d="M438.4,628.13h-1c.13-.41.64-.76,1-1-.02.33.01.67,0,1Z"/>
                    <path class="cls-2" d="M327.55,654.1h-2c.66.02,1.33-.02,2,0Z"/>
                    <path class="cls-2" d="M350.52,655.1c-.67,0-1.33,0-2,0h2Z"/>
                    <path class="cls-2" d="M338.53,655.1c-.33,0-.67,0-1,0h1Z"/>
                    <path class="cls-7" d="M275.62,626.14v-109.85c0,33.9-3.17,77.16,0,109.85Z"/>
                    <path class="cls-12" d="M426.41,502.31c.87,10.59-.65,22.25,0,32.96h-124.83c-.78-.13-1.86-.45-1.91-1.08-.59-7.76-1.87-29.38,5.22-33.3l120.29-.58,1.23,1.99Z"/>
                    <path class="cls-7" d="M426.41,502.31l-120.92.43c-6.2,2.21-3.17,26.92-3.91,32.52-1.07-.13-4.78.24-5,0-1.48-1.62-.14-40.67,1.98-43.47,1.22-1.63,3.01-2.54,4.95-3.04,7.79-2,104.88-2.04,114.32-.33,9.44,1.72,7.99,6.65,8.59,13.88Z"/>
                    <path class="cls-13" d="M394.46,615.15v17.98h-28.96v-16.48c0-.11,1.39-1.5,1.5-1.5h27.46Z"/>
                    <path class="cls-13" d="M319.56,615.15v17.98h-16.48c-6.27,0-7.53-13.58-6.49-17.98h22.97Z"/>
                    <path class="cls-13" d="M333.54,633.13c-5.65,2.32-4.99-14.84-4.34-15.61.24-.29.76-.36,1.35-.37.09-.41.21-.78.46-1,.94-.83,22.69.02,24.5,1,1.99,3.16,1.59,11.6,0,15.98-.61.12-1.35-.06-2,0h-3.99c-4.38.27-11.8.52-15.98,0Z"/>
                    <path class="cls-13" d="M426.41,617.15c.36.36.1,8.78-.28,10.23-2.38,9.12-22.69,5.77-22.69,4.25v-14.48c3.13.61,22.16-.81,22.97,0Z"/>
                    <path class="cls-19" d="M333.54,633.13c-1.07-.13-4.78.24-5,0-.61-.66-.89-17.98,0-17.98h28.96c-1.04,4.85,2.32,17.14-2,17.98-.59-1.64.8-15.98,0-15.98h-24.97c-.87,0-1.14,16.76,3,15.98Z"/>
                    <path class="cls-19" d="M353.51,633.13h-3.99c1.78-.11,3.8.02,3.99,0Z"/>
                    <g>
                      <rect class="cls-12" x="296.59" y="544.25" width="129.82" height="62.91"/>
                      <g>
                        <path class="cls-3" d="M394.27,551.49c35.4-2.52,35,55.44-3.87,48.24-26.64-4.94-23.57-46.28,3.87-48.24Z"/>
                        <path class="cls-22" d="M396.12,560.6c18.77-.19,20.68,27.71,3.75,30.5-23.43,3.87-25.61-30.28-3.75-30.5Z"/>
                      </g>
                      <g>
                        <path class="cls-3" d="M324.33,551.49c36.44-3.31,36.19,54.7-2.03,48.44-26.88-4.4-25.17-45.97,2.03-48.44Z"/>
                        <g>
                          <path class="cls-11" d="M324.31,560.46c21.55-3.12,25.2,29.43,4.31,31.27-20.61,1.81-22.71-28.6-4.31-31.27Z"/>
                          <path class="cls-8" d="M320.24,565.39c6.85-2.67,11.81,6.91,5.06,10.1-8.5,4.01-10.04-8.15-5.06-10.1Z"/>
                        </g>
                      </g>
                    </g>
                  </g>
                </g>
              </g>
            </g>
          </g>
        </g>
      </g>
    </g>
  </g>
</svg>
